<svg width="1186" height="475" viewBox="0 0 1186 475" fill="none" xmlns="http://www.w3.org/2000/svg">
<g clip-path="url(#clip0_2658_8231)">
<g clip-path="url(#clip1_2658_8231)">
<path opacity="0.1" d="M39.6088 43.365L37.856 43.799L36.3514 43.008V40.992L37.856 40.201L39.6088 40.635L40 39.284L38.6685 38.955L39.0145 37.716L37.5626 37.352L37.0962 38.983L35.5916 39.774L33.7485 38.766V37.184L35.0349 35.987L33.9667 35L32.9962 35.903L32.0258 35L30.9576 35.987L32.244 37.184V38.766L30.3632 39.774L28.8587 38.983L28.4224 37.352L26.978 37.716L27.3315 38.955L26 39.284L26.3912 40.635L28.144 40.201L29.6486 40.992V43.015L28.144 43.806L26.3912 43.372L26 44.723L27.3315 45.052L26.978 46.284L28.4299 46.648L28.8963 45.017L30.4009 44.226L32.244 45.234V46.816L30.9576 48.013L32.0258 49L32.9962 48.097L33.9667 49L35.0274 48.013L33.7485 46.816V45.234L35.6292 44.219L37.1338 45.01L37.6002 46.641L39.0145 46.284L38.6609 45.045L39.9925 44.716L39.6088 43.365ZM31.1155 40.992L32.9962 39.977L34.8769 40.992V43.008L32.9962 44.023L31.1155 43.008V40.992Z" fill="#717078"/>
<path opacity="0.4" d="M120.609 182.365L118.856 182.799L117.351 182.008V179.992L118.856 179.201L120.609 179.635L121 178.284L119.668 177.955L120.015 176.716L118.563 176.352L118.096 177.983L116.592 178.774L114.749 177.766V176.184L116.035 174.987L114.967 174L113.996 174.903L113.026 174L111.958 174.987L113.244 176.184V177.766L111.363 178.774L109.859 177.983L109.422 176.352L107.978 176.716L108.332 177.955L107 178.284L107.391 179.635L109.144 179.201L110.649 179.992V182.015L109.144 182.806L107.391 182.372L107 183.723L108.332 184.052L107.978 185.284L109.43 185.648L109.896 184.017L111.401 183.226L113.244 184.234V185.816L111.958 187.013L113.026 188L113.996 187.097L114.967 188L116.027 187.013L114.749 185.816V184.234L116.629 183.219L118.134 184.01L118.6 185.641L120.015 185.284L119.661 184.045L120.992 183.716L120.609 182.365ZM112.116 179.992L113.996 178.977L115.877 179.992V182.008L113.996 183.023L112.116 182.008V179.992Z" fill="#717078"/>
<path d="M150.609 366.365L148.856 366.799L147.351 366.008V363.992L148.856 363.201L150.609 363.635L151 362.284L149.668 361.955L150.015 360.716L148.563 360.352L148.096 361.983L146.592 362.774L144.749 361.766V360.184L146.035 358.987L144.967 358L143.996 358.903L143.026 358L141.958 358.987L143.244 360.184V361.766L141.363 362.774L139.859 361.983L139.422 360.352L137.978 360.716L138.332 361.955L137 362.284L137.391 363.635L139.144 363.201L140.649 363.992V366.015L139.144 366.806L137.391 366.372L137 367.723L138.332 368.052L137.978 369.284L139.43 369.648L139.896 368.017L141.401 367.226L143.244 368.234V369.816L141.958 371.013L143.026 372L143.996 371.097L144.967 372L146.027 371.013L144.749 369.816V368.234L146.629 367.219L148.134 368.01L148.6 369.641L150.015 369.284L149.661 368.045L150.992 367.716L150.609 366.365ZM142.116 363.992L143.996 362.977L145.877 363.992V366.008L143.996 367.023L142.116 366.008V363.992Z" fill="#717078"/>
<path opacity="0.1" d="M354.609 36.365L352.856 36.799L351.351 36.008V33.992L352.856 33.201L354.609 33.635L355 32.284L353.668 31.955L354.015 30.716L352.563 30.352L352.096 31.983L350.592 32.774L348.749 31.766V30.184L350.035 28.987L348.967 28L347.996 28.903L347.026 28L345.958 28.987L347.244 30.184V31.766L345.363 32.774L343.859 31.983L343.422 30.352L341.978 30.716L342.332 31.955L341 32.284L341.391 33.635L343.144 33.201L344.649 33.992V36.015L343.144 36.806L341.391 36.372L341 37.723L342.332 38.052L341.978 39.284L343.43 39.648L343.896 38.017L345.401 37.226L347.244 38.234V39.816L345.958 41.013L347.026 42L347.996 41.097L348.967 42L350.027 41.013L348.749 39.816V38.234L350.629 37.219L352.134 38.01L352.6 39.641L354.015 39.284L353.661 38.045L354.992 37.716L354.609 36.365ZM346.116 33.992L347.996 32.977L349.877 33.992V36.008L347.996 37.023L346.116 36.008V33.992Z" fill="#717078"/>
<path opacity="0.3" d="M214.609 121.365L212.856 121.799L211.351 121.008V118.992L212.856 118.201L214.609 118.635L215 117.284L213.668 116.955L214.015 115.716L212.563 115.352L212.096 116.983L210.592 117.774L208.749 116.766V115.184L210.035 113.987L208.967 113L207.996 113.903L207.026 113L205.958 113.987L207.244 115.184V116.766L205.363 117.774L203.859 116.983L203.422 115.352L201.978 115.716L202.332 116.955L201 117.284L201.391 118.635L203.144 118.201L204.649 118.992V121.015L203.144 121.806L201.391 121.372L201 122.723L202.332 123.052L201.978 124.284L203.43 124.648L203.896 123.017L205.401 122.226L207.244 123.234V124.816L205.958 126.013L207.026 127L207.996 126.097L208.967 127L210.027 126.013L208.749 124.816V123.234L210.629 122.219L212.134 123.01L212.6 124.641L214.015 124.284L213.661 123.045L214.992 122.716L214.609 121.365ZM206.116 118.992L207.996 117.977L209.877 118.992V121.008L207.996 122.023L206.116 121.008V118.992Z" fill="#717078"/>
<path opacity="0.4" d="M307.609 183.365L305.856 183.799L304.351 183.008V180.992L305.856 180.201L307.609 180.635L308 179.284L306.668 178.955L307.015 177.716L305.563 177.352L305.096 178.983L303.592 179.774L301.749 178.766V177.184L303.035 175.987L301.967 175L300.996 175.903L300.026 175L298.958 175.987L300.244 177.184V178.766L298.363 179.774L296.859 178.983L296.422 177.352L294.978 177.716L295.332 178.955L294 179.284L294.391 180.635L296.144 180.201L297.649 180.992V183.015L296.144 183.806L294.391 183.372L294 184.723L295.332 185.052L294.978 186.284L296.43 186.648L296.896 185.017L298.401 184.226L300.244 185.234V186.816L298.958 188.013L300.026 189L300.996 188.097L301.967 189L303.027 188.013L301.749 186.816V185.234L303.629 184.219L305.134 185.01L305.6 186.641L307.015 186.284L306.661 185.045L307.992 184.716L307.609 183.365ZM299.116 180.992L300.996 179.977L302.877 180.992V183.008L300.996 184.023L299.116 183.008V180.992Z" fill="#717078"/>
<path d="M281.609 261.365L279.856 261.799L278.351 261.008V258.992L279.856 258.201L281.609 258.635L282 257.284L280.668 256.955L281.015 255.716L279.563 255.352L279.096 256.983L277.592 257.774L275.749 256.766V255.184L277.035 253.987L275.967 253L274.996 253.903L274.026 253L272.958 253.987L274.244 255.184V256.766L272.363 257.774L270.859 256.983L270.422 255.352L268.978 255.716L269.332 256.955L268 257.284L268.391 258.635L270.144 258.201L271.649 258.992V261.015L270.144 261.806L268.391 261.372L268 262.723L269.332 263.052L268.978 264.284L270.43 264.648L270.896 263.017L272.401 262.226L274.244 263.234V264.816L272.958 266.013L274.026 267L274.996 266.097L275.967 267L277.027 266.013L275.749 264.816V263.234L277.629 262.219L279.134 263.01L279.6 264.641L281.015 264.284L280.661 263.045L281.992 262.716L281.609 261.365ZM273.116 258.992L274.996 257.977L276.877 258.992V261.008L274.996 262.023L273.116 261.008V258.992Z" fill="#717078"/>
<path d="M362.609 353.365L360.856 353.799L359.351 353.008V350.992L360.856 350.201L362.609 350.635L363 349.284L361.668 348.955L362.015 347.716L360.563 347.352L360.096 348.983L358.592 349.774L356.749 348.766V347.184L358.035 345.987L356.967 345L355.996 345.903L355.026 345L353.958 345.987L355.244 347.184V348.766L353.363 349.774L351.859 348.983L351.422 347.352L349.978 347.716L350.332 348.955L349 349.284L349.391 350.635L351.144 350.201L352.649 350.992V353.015L351.144 353.806L349.391 353.372L349 354.723L350.332 355.052L349.978 356.284L351.43 356.648L351.896 355.017L353.401 354.226L355.244 355.234V356.816L353.958 358.013L355.026 359L355.996 358.097L356.967 359L358.027 358.013L356.749 356.816V355.234L358.629 354.219L360.134 355.01L360.6 356.641L362.015 356.284L361.661 355.045L362.992 354.716L362.609 353.365ZM354.116 350.992L355.996 349.977L357.877 350.992V353.008L355.996 354.023L354.116 353.008V350.992Z" fill="#717078"/>
<path opacity="0.2" d="M142.247 71.4544L140.619 72.1207L139.062 71.5238L138.786 69.4988L140.126 68.5065L141.873 68.7122L142.064 67.3037L140.737 67.1482L140.901 65.8582L139.453 65.6833L139.228 67.3829L137.888 68.3751L135.975 67.6047L135.758 66.0156L136.833 64.6443L135.669 63.7932L134.859 64.8277L133.801 64.0482L132.908 65.1799L134.31 66.2133L134.527 67.8024L132.855 69.062L131.298 68.4651L130.654 66.8841L129.314 67.4395L129.824 68.6377L128.587 69.1431L129.149 70.4487L130.777 69.7825L132.334 70.3794L132.611 72.4115L131.271 73.4037L129.524 73.198L129.333 74.6065L130.66 74.762L130.488 76.046L131.936 76.2209L132.161 74.5213L133.501 73.5291L135.414 74.2994L135.631 75.8885L134.556 77.2599L135.72 78.111L136.53 77.0764L137.588 77.856L138.474 76.7252L137.079 75.6909L136.862 74.1018L138.533 72.8351L140.09 73.432L140.763 75.009L142.075 74.4646L141.565 73.2665L142.802 72.7611L142.247 71.4544ZM133.746 70.1867L135.417 68.92L137.367 69.6925L137.643 71.7175L135.972 72.9842L134.022 72.2117L133.746 70.1867Z" fill="#717078"/>
<path opacity="0.5" d="M38.2471 222.454L36.6193 223.12L35.0625 222.523L34.7861 220.498L36.126 219.506L37.8728 219.712L38.0642 218.303L36.7373 218.148L36.9006 216.858L35.453 216.683L35.2276 218.382L33.8877 219.375L31.9753 218.604L31.7584 217.015L32.8326 215.644L31.669 214.793L30.8586 215.827L29.8006 215.048L28.9076 216.179L30.3101 217.213L30.5269 218.802L28.8547 220.062L27.2979 219.465L26.6543 217.884L25.3138 218.439L25.824 219.637L24.5873 220.143L25.1491 221.448L26.7769 220.782L28.3337 221.379L28.611 223.411L27.2711 224.403L25.5243 224.198L25.333 225.606L26.6598 225.762L26.4884 227.046L27.9359 227.22L28.1613 225.521L29.5012 224.529L31.4137 225.299L31.6305 226.888L30.5563 228.259L31.7199 229.111L32.5303 228.076L33.5883 228.856L34.4741 227.725L33.0789 226.69L32.862 225.101L34.5333 223.835L36.0901 224.432L36.7627 226.009L38.0752 225.464L37.5649 224.266L38.8016 223.761L38.2471 222.454ZM29.7458 221.186L31.4171 219.92L33.3667 220.692L33.6431 222.717L31.9718 223.984L30.0222 223.211L29.7458 221.186Z" fill="#717078"/>
<path opacity="0.2" d="M288.247 78.4544L286.619 79.1207L285.062 78.5238L284.786 76.4988L286.126 75.5065L287.873 75.7122L288.064 74.3037L286.737 74.1482L286.901 72.8582L285.453 72.6833L285.228 74.3829L283.888 75.3751L281.975 74.6047L281.758 73.0156L282.833 71.6443L281.669 70.7932L280.859 71.8277L279.801 71.0482L278.908 72.1799L280.31 73.2133L280.527 74.8024L278.855 76.062L277.298 75.4651L276.654 73.8841L275.314 74.4395L275.824 75.6377L274.587 76.1431L275.149 77.4487L276.777 76.7825L278.334 77.3794L278.611 79.4115L277.271 80.4037L275.524 80.198L275.333 81.6065L276.66 81.762L276.488 83.046L277.936 83.2209L278.161 81.5213L279.501 80.5291L281.414 81.2994L281.631 82.8885L280.556 84.2599L281.72 85.111L282.53 84.0764L283.588 84.856L284.474 83.7252L283.079 82.6909L282.862 81.1018L284.533 79.8351L286.09 80.432L286.763 82.009L288.075 81.4646L287.565 80.2665L288.802 79.7611L288.247 78.4544ZM279.746 77.1867L281.417 75.92L283.367 76.6925L283.643 78.7175L281.972 79.9842L280.022 79.2117L279.746 77.1867Z" fill="#717078"/>
<path opacity="0.5" d="M215.247 201.454L213.619 202.121L212.062 201.524L211.786 199.499L213.126 198.507L214.873 198.712L215.064 197.304L213.737 197.148L213.901 195.858L212.453 195.683L212.228 197.383L210.888 198.375L208.975 197.605L208.758 196.016L209.833 194.644L208.669 193.793L207.859 194.828L206.801 194.048L205.908 195.18L207.31 196.213L207.527 197.802L205.855 199.062L204.298 198.465L203.654 196.884L202.314 197.44L202.824 198.638L201.587 199.143L202.149 200.449L203.777 199.783L205.334 200.379L205.611 202.411L204.271 203.404L202.524 203.198L202.333 204.606L203.66 204.762L203.488 206.046L204.936 206.221L205.161 204.521L206.501 203.529L208.414 204.299L208.631 205.889L207.556 207.26L208.72 208.111L209.53 207.076L210.588 207.856L211.474 206.725L210.079 205.691L209.862 204.102L211.533 202.835L213.09 203.432L213.763 205.009L215.075 204.465L214.565 203.267L215.802 202.761L215.247 201.454ZM206.746 200.187L208.417 198.92L210.367 199.692L210.643 201.718L208.972 202.984L207.022 202.212L206.746 200.187Z" fill="#717078"/>
<path d="M82.2471 286.454L80.6193 287.12L79.0625 286.523L78.7861 284.498L80.126 283.506L81.8728 283.712L82.0642 282.303L80.7373 282.148L80.9006 280.858L79.453 280.683L79.2276 282.382L77.8877 283.375L75.9753 282.604L75.7584 281.015L76.8326 279.644L75.669 278.793L74.8586 279.827L73.8006 279.048L72.9076 280.179L74.3101 281.213L74.5269 282.802L72.8547 284.062L71.2979 283.465L70.6543 281.884L69.3138 282.439L69.824 283.637L68.5873 284.143L69.1491 285.448L70.7769 284.782L72.3337 285.379L72.611 287.411L71.2711 288.403L69.5243 288.198L69.333 289.606L70.6598 289.762L70.4884 291.046L71.9359 291.22L72.1613 289.521L73.5012 288.529L75.4137 289.299L75.6305 290.888L74.5563 292.259L75.7199 293.111L76.5303 292.076L77.5883 292.856L78.4741 291.725L77.0789 290.69L76.862 289.101L78.5333 287.835L80.0901 288.432L80.7627 290.009L82.0752 289.464L81.5649 288.266L82.8016 287.761L82.2471 286.454ZM73.7458 285.186L75.4171 283.92L77.3667 284.692L77.6431 286.717L75.9718 287.984L74.0222 287.211L73.7458 285.186Z" fill="#717078"/>
<path d="M223.247 328.454L221.619 329.12L220.062 328.523L219.786 326.498L221.126 325.506L222.873 325.712L223.064 324.303L221.737 324.148L221.901 322.858L220.453 322.683L220.228 324.382L218.888 325.375L216.975 324.604L216.758 323.015L217.833 321.644L216.669 320.793L215.859 321.827L214.801 321.048L213.908 322.179L215.31 323.213L215.527 324.802L213.855 326.062L212.298 325.465L211.654 323.884L210.314 324.439L210.824 325.637L209.587 326.143L210.149 327.448L211.777 326.782L213.334 327.379L213.611 329.411L212.271 330.403L210.524 330.198L210.333 331.606L211.66 331.762L211.488 333.046L212.936 333.22L213.161 331.521L214.501 330.529L216.414 331.299L216.631 332.888L215.556 334.259L216.72 335.111L217.53 334.076L218.588 334.856L219.474 333.725L218.079 332.69L217.862 331.101L219.533 329.835L221.09 330.432L221.763 332.009L223.075 331.464L222.565 330.266L223.802 329.761L223.247 328.454ZM214.746 327.186L216.417 325.92L218.367 326.692L218.643 328.717L216.972 329.984L215.022 329.211L214.746 327.186Z" fill="#717078"/>
<path opacity="0.1" d="M233.962 41.7839L232.344 41.0941L231.674 39.5672L232.921 37.9473L234.568 38.2032L235.65 39.5904L236.786 38.7366L235.964 37.6834L236.996 36.8929L236.104 35.7402L234.736 36.7744L233.089 36.5185L232.293 34.6166L233.271 33.3455L235.001 33.1459L234.789 31.72L233.483 31.8706L233.294 30.5701L231.861 30.7302L232.112 32.4541L231.134 33.7252L229.063 33.4209L228.393 31.8939L229.065 30.325L227.728 29.7617L227.235 30.9667L226.006 30.4421L225.472 31.7594L227.09 32.4492L227.759 33.9761L226.509 35.6016L224.861 35.3458L223.78 33.9586L222.643 34.8123L223.465 35.8655L222.431 36.646L223.324 37.7986L224.692 36.7645L226.339 37.0203L227.135 38.9222L226.157 40.1933L224.427 40.3929L224.639 41.8189L225.945 41.6683L226.134 42.9688L227.561 42.8042L227.316 41.0847L228.294 39.8136L230.369 40.1123L231.039 41.6393L230.39 43.2261L231.7 43.7772L232.193 42.5722L233.422 43.0967L233.962 41.7839ZM228.889 34.8453L230.965 35.144L231.785 37.0738L230.539 38.6936L228.463 38.3949L227.643 36.4651L228.889 34.8453Z" fill="#717078"/>
<path opacity="0.3" d="M56.9618 137.784L55.3438 137.094L54.6743 135.567L55.9206 133.947L57.5681 134.203L58.6495 135.59L59.786 134.737L58.964 133.683L59.9965 132.893L59.1035 131.74L57.7361 132.774L56.0885 132.519L55.2925 130.617L56.2705 129.346L58.0011 129.146L57.7887 127.72L56.4832 127.871L56.2942 126.57L54.8615 126.73L55.112 128.454L54.134 129.725L52.0626 129.421L51.3931 127.894L52.0655 126.325L50.7283 125.762L50.2345 126.967L49.0058 126.442L48.4718 127.759L50.0898 128.449L50.7593 129.976L49.5087 131.602L47.8611 131.346L46.7798 129.959L45.6433 130.812L46.4652 131.866L45.4313 132.646L46.3243 133.799L47.6917 132.764L49.3393 133.02L50.1353 134.922L49.1573 136.193L47.4267 136.393L47.6391 137.819L48.9446 137.668L49.1336 138.969L50.5606 138.804L50.3158 137.085L51.2938 135.814L53.3695 136.112L54.039 137.639L53.3898 139.226L54.6996 139.777L55.1933 138.572L56.422 139.097L56.9618 137.784ZM51.8889 130.845L53.9646 131.144L54.7852 133.074L53.5389 134.694L51.4632 134.395L50.6426 132.465L51.8889 130.845Z" fill="#717078"/>
<path opacity="0.3" d="M366.962 137.784L365.344 137.094L364.674 135.567L365.921 133.947L367.568 134.203L368.65 135.59L369.786 134.737L368.964 133.683L369.996 132.893L369.104 131.74L367.736 132.774L366.089 132.519L365.293 130.617L366.271 129.346L368.001 129.146L367.789 127.72L366.483 127.871L366.294 126.57L364.861 126.73L365.112 128.454L364.134 129.725L362.063 129.421L361.393 127.894L362.065 126.325L360.728 125.762L360.235 126.967L359.006 126.442L358.472 127.759L360.09 128.449L360.759 129.976L359.509 131.602L357.861 131.346L356.78 129.959L355.643 130.812L356.465 131.866L355.431 132.646L356.324 133.799L357.692 132.764L359.339 133.02L360.135 134.922L359.157 136.193L357.427 136.393L357.639 137.819L358.945 137.668L359.134 138.969L360.561 138.804L360.316 137.085L361.294 135.814L363.369 136.112L364.039 137.639L363.39 139.226L364.7 139.777L365.193 138.572L366.422 139.097L366.962 137.784ZM361.889 130.845L363.965 131.144L364.785 133.074L363.539 134.694L361.463 134.395L360.643 132.465L361.889 130.845Z" fill="#717078"/>
<path d="M359.962 264.784L358.344 264.094L357.674 262.567L358.921 260.947L360.568 261.203L361.65 262.59L362.786 261.737L361.964 260.683L362.996 259.893L362.104 258.74L360.736 259.774L359.089 259.519L358.293 257.617L359.271 256.346L361.001 256.146L360.789 254.72L359.483 254.871L359.294 253.57L357.861 253.73L358.112 255.454L357.134 256.725L355.063 256.421L354.393 254.894L355.065 253.325L353.728 252.762L353.235 253.967L352.006 253.442L351.472 254.759L353.09 255.449L353.759 256.976L352.509 258.602L350.861 258.346L349.78 256.959L348.643 257.812L349.465 258.866L348.431 259.646L349.324 260.799L350.692 259.764L352.339 260.02L353.135 261.922L352.157 263.193L350.427 263.393L350.639 264.819L351.945 264.668L352.134 265.969L353.561 265.804L353.316 264.085L354.294 262.814L356.369 263.112L357.039 264.639L356.39 266.226L357.7 266.777L358.193 265.572L359.422 266.097L359.962 264.784ZM354.889 257.845L356.965 258.144L357.785 260.074L356.539 261.694L354.463 261.395L353.643 259.465L354.889 257.845Z" fill="#717078"/>
<path d="M279.962 368.784L278.344 368.094L277.674 366.567L278.921 364.947L280.568 365.203L281.65 366.59L282.786 365.737L281.964 364.683L282.996 363.893L282.104 362.74L280.736 363.774L279.089 363.519L278.293 361.617L279.271 360.346L281.001 360.146L280.789 358.72L279.483 358.871L279.294 357.57L277.861 357.73L278.112 359.454L277.134 360.725L275.063 360.421L274.393 358.894L275.065 357.325L273.728 356.762L273.235 357.967L272.006 357.442L271.472 358.759L273.09 359.449L273.759 360.976L272.509 362.602L270.861 362.346L269.78 360.959L268.643 361.812L269.465 362.866L268.431 363.646L269.324 364.799L270.692 363.764L272.339 364.02L273.135 365.922L272.157 367.193L270.427 367.393L270.639 368.819L271.945 368.668L272.134 369.969L273.561 369.804L273.316 368.085L274.294 366.814L276.369 367.112L277.039 368.639L276.39 370.226L277.7 370.777L278.193 369.572L279.422 370.097L279.962 368.784ZM274.889 361.845L276.965 362.144L277.785 364.074L276.539 365.694L274.463 365.395L273.643 363.465L274.889 361.845Z" fill="#717078"/>
<path d="M166.962 264.784L165.344 264.094L164.674 262.567L165.921 260.947L167.568 261.203L168.65 262.59L169.786 261.737L168.964 260.683L169.996 259.893L169.104 258.74L167.736 259.774L166.089 259.519L165.293 257.617L166.271 256.346L168.001 256.146L167.789 254.72L166.483 254.871L166.294 253.57L164.861 253.73L165.112 255.454L164.134 256.725L162.063 256.421L161.393 254.894L162.065 253.325L160.728 252.762L160.235 253.967L159.006 253.442L158.472 254.759L160.09 255.449L160.759 256.976L159.509 258.602L157.861 258.346L156.78 256.959L155.643 257.812L156.465 258.866L155.431 259.646L156.324 260.799L157.692 259.764L159.339 260.02L160.135 261.922L159.157 263.193L157.427 263.393L157.639 264.819L158.945 264.668L159.134 265.969L160.561 265.804L160.316 264.085L161.294 262.814L163.369 263.112L164.039 264.639L163.39 266.226L164.7 266.777L165.193 265.572L166.422 266.097L166.962 264.784ZM161.889 257.845L163.965 258.144L164.785 260.074L163.539 261.694L161.463 261.395L160.643 259.465L161.889 257.845Z" fill="#717078"/>
<path d="M47.9618 362.784L46.3438 362.094L45.6743 360.567L46.9206 358.947L48.5681 359.203L49.6495 360.59L50.786 359.737L49.964 358.683L50.9965 357.893L50.1035 356.74L48.7361 357.774L47.0885 357.519L46.2925 355.617L47.2705 354.346L49.0011 354.146L48.7887 352.72L47.4832 352.871L47.2942 351.57L45.8615 351.73L46.112 353.454L45.134 354.725L43.0626 354.421L42.3931 352.894L43.0655 351.325L41.7283 350.762L41.2345 351.967L40.0058 351.442L39.4718 352.759L41.0898 353.449L41.7593 354.976L40.5087 356.602L38.8611 356.346L37.7798 354.959L36.6433 355.812L37.4652 356.866L36.4313 357.646L37.3243 358.799L38.6917 357.764L40.3393 358.02L41.1353 359.922L40.1573 361.193L38.4267 361.393L38.6391 362.819L39.9446 362.668L40.1336 363.969L41.5606 363.804L41.3158 362.085L42.2938 360.814L44.3695 361.112L45.039 362.639L44.3898 364.226L45.6996 364.777L46.1933 363.572L47.422 364.097L47.9618 362.784ZM42.8889 355.845L44.9646 356.144L45.7852 358.074L44.5389 359.694L42.4632 359.395L41.6426 357.465L42.8889 355.845Z" fill="#717078"/>
<path opacity="0.1" d="M439.609 43.365L437.856 43.799L436.351 43.008V40.992L437.856 40.201L439.609 40.635L440 39.284L438.668 38.955L439.015 37.716L437.563 37.352L437.096 38.983L435.592 39.774L433.749 38.766V37.184L435.035 35.987L433.967 35L432.996 35.903L432.026 35L430.958 35.987L432.244 37.184V38.766L430.363 39.774L428.859 38.983L428.422 37.352L426.978 37.716L427.332 38.955L426 39.284L426.391 40.635L428.144 40.201L429.649 40.992V43.015L428.144 43.806L426.391 43.372L426 44.723L427.332 45.052L426.978 46.284L428.43 46.648L428.896 45.017L430.401 44.226L432.244 45.234V46.816L430.958 48.013L432.026 49L432.996 48.097L433.967 49L435.027 48.013L433.749 46.816V45.234L435.629 44.219L437.134 45.01L437.6 46.641L439.015 46.284L438.661 45.045L439.992 44.716L439.609 43.365ZM431.116 40.992L432.996 39.977L434.877 40.992V43.008L432.996 44.023L431.116 43.008V40.992Z" fill="#717078"/>
<path opacity="0.4" d="M520.609 182.365L518.856 182.799L517.351 182.008V179.992L518.856 179.201L520.609 179.635L521 178.284L519.668 177.955L520.015 176.716L518.563 176.352L518.096 177.983L516.592 178.774L514.749 177.766V176.184L516.035 174.987L514.967 174L513.996 174.903L513.026 174L511.958 174.987L513.244 176.184V177.766L511.363 178.774L509.859 177.983L509.422 176.352L507.978 176.716L508.332 177.955L507 178.284L507.391 179.635L509.144 179.201L510.649 179.992V182.015L509.144 182.806L507.391 182.372L507 183.723L508.332 184.052L507.978 185.284L509.43 185.648L509.896 184.017L511.401 183.226L513.244 184.234V185.816L511.958 187.013L513.026 188L513.996 187.097L514.967 188L516.027 187.013L514.749 185.816V184.234L516.629 183.219L518.134 184.01L518.6 185.641L520.015 185.284L519.661 184.045L520.992 183.716L520.609 182.365ZM512.116 179.992L513.996 178.977L515.877 179.992V182.008L513.996 183.023L512.116 182.008V179.992Z" fill="#717078"/>
<path d="M550.609 366.365L548.856 366.799L547.351 366.008V363.992L548.856 363.201L550.609 363.635L551 362.284L549.668 361.955L550.015 360.716L548.563 360.352L548.096 361.983L546.592 362.774L544.749 361.766V360.184L546.035 358.987L544.967 358L543.996 358.903L543.026 358L541.958 358.987L543.244 360.184V361.766L541.363 362.774L539.859 361.983L539.422 360.352L537.978 360.716L538.332 361.955L537 362.284L537.391 363.635L539.144 363.201L540.649 363.992V366.015L539.144 366.806L537.391 366.372L537 367.723L538.332 368.052L537.978 369.284L539.43 369.648L539.896 368.017L541.401 367.226L543.244 368.234V369.816L541.958 371.013L543.026 372L543.996 371.097L544.967 372L546.027 371.013L544.749 369.816V368.234L546.629 367.219L548.134 368.01L548.6 369.641L550.015 369.284L549.661 368.045L550.992 367.716L550.609 366.365ZM542.116 363.992L543.996 362.977L545.877 363.992V366.008L543.996 367.023L542.116 366.008V363.992Z" fill="#717078"/>
<path opacity="0.1" d="M754.609 36.365L752.856 36.799L751.351 36.008V33.992L752.856 33.201L754.609 33.635L755 32.284L753.668 31.955L754.015 30.716L752.563 30.352L752.096 31.983L750.592 32.774L748.749 31.766V30.184L750.035 28.987L748.967 28L747.996 28.903L747.026 28L745.958 28.987L747.244 30.184V31.766L745.363 32.774L743.859 31.983L743.422 30.352L741.978 30.716L742.332 31.955L741 32.284L741.391 33.635L743.144 33.201L744.649 33.992V36.015L743.144 36.806L741.391 36.372L741 37.723L742.332 38.052L741.978 39.284L743.43 39.648L743.896 38.017L745.401 37.226L747.244 38.234V39.816L745.958 41.013L747.026 42L747.996 41.097L748.967 42L750.027 41.013L748.749 39.816V38.234L750.629 37.219L752.134 38.01L752.6 39.641L754.015 39.284L753.661 38.045L754.992 37.716L754.609 36.365ZM746.116 33.992L747.996 32.977L749.877 33.992V36.008L747.996 37.023L746.116 36.008V33.992Z" fill="#717078"/>
<path opacity="0.3" d="M614.609 121.365L612.856 121.799L611.351 121.008V118.992L612.856 118.201L614.609 118.635L615 117.284L613.668 116.955L614.015 115.716L612.563 115.352L612.096 116.983L610.592 117.774L608.749 116.766V115.184L610.035 113.987L608.967 113L607.996 113.903L607.026 113L605.958 113.987L607.244 115.184V116.766L605.363 117.774L603.859 116.983L603.422 115.352L601.978 115.716L602.332 116.955L601 117.284L601.391 118.635L603.144 118.201L604.649 118.992V121.015L603.144 121.806L601.391 121.372L601 122.723L602.332 123.052L601.978 124.284L603.43 124.648L603.896 123.017L605.401 122.226L607.244 123.234V124.816L605.958 126.013L607.026 127L607.996 126.097L608.967 127L610.027 126.013L608.749 124.816V123.234L610.629 122.219L612.134 123.01L612.6 124.641L614.015 124.284L613.661 123.045L614.992 122.716L614.609 121.365ZM606.116 118.992L607.996 117.977L609.877 118.992V121.008L607.996 122.023L606.116 121.008V118.992Z" fill="#717078"/>
<path opacity="0.4" d="M707.609 183.365L705.856 183.799L704.351 183.008V180.992L705.856 180.201L707.609 180.635L708 179.284L706.668 178.955L707.015 177.716L705.563 177.352L705.096 178.983L703.592 179.774L701.749 178.766V177.184L703.035 175.987L701.967 175L700.996 175.903L700.026 175L698.958 175.987L700.244 177.184V178.766L698.363 179.774L696.859 178.983L696.422 177.352L694.978 177.716L695.332 178.955L694 179.284L694.391 180.635L696.144 180.201L697.649 180.992V183.015L696.144 183.806L694.391 183.372L694 184.723L695.332 185.052L694.978 186.284L696.43 186.648L696.896 185.017L698.401 184.226L700.244 185.234V186.816L698.958 188.013L700.026 189L700.996 188.097L701.967 189L703.027 188.013L701.749 186.816V185.234L703.629 184.219L705.134 185.01L705.6 186.641L707.015 186.284L706.661 185.045L707.992 184.716L707.609 183.365ZM699.116 180.992L700.996 179.977L702.877 180.992V183.008L700.996 184.023L699.116 183.008V180.992Z" fill="#717078"/>
<path d="M681.609 261.365L679.856 261.799L678.351 261.008V258.992L679.856 258.201L681.609 258.635L682 257.284L680.668 256.955L681.015 255.716L679.563 255.352L679.096 256.983L677.592 257.774L675.749 256.766V255.184L677.035 253.987L675.967 253L674.996 253.903L674.026 253L672.958 253.987L674.244 255.184V256.766L672.363 257.774L670.859 256.983L670.422 255.352L668.978 255.716L669.332 256.955L668 257.284L668.391 258.635L670.144 258.201L671.649 258.992V261.015L670.144 261.806L668.391 261.372L668 262.723L669.332 263.052L668.978 264.284L670.43 264.648L670.896 263.017L672.401 262.226L674.244 263.234V264.816L672.958 266.013L674.026 267L674.996 266.097L675.967 267L677.027 266.013L675.749 264.816V263.234L677.629 262.219L679.134 263.01L679.6 264.641L681.015 264.284L680.661 263.045L681.992 262.716L681.609 261.365ZM673.116 258.992L674.996 257.977L676.877 258.992V261.008L674.996 262.023L673.116 261.008V258.992Z" fill="#717078"/>
<path d="M762.609 353.365L760.856 353.799L759.351 353.008V350.992L760.856 350.201L762.609 350.635L763 349.284L761.668 348.955L762.015 347.716L760.563 347.352L760.096 348.983L758.592 349.774L756.749 348.766V347.184L758.035 345.987L756.967 345L755.996 345.903L755.026 345L753.958 345.987L755.244 347.184V348.766L753.363 349.774L751.859 348.983L751.422 347.352L749.978 347.716L750.332 348.955L749 349.284L749.391 350.635L751.144 350.201L752.649 350.992V353.015L751.144 353.806L749.391 353.372L749 354.723L750.332 355.052L749.978 356.284L751.43 356.648L751.896 355.017L753.401 354.226L755.244 355.234V356.816L753.958 358.013L755.026 359L755.996 358.097L756.967 359L758.027 358.013L756.749 356.816V355.234L758.629 354.219L760.134 355.01L760.6 356.641L762.015 356.284L761.661 355.045L762.992 354.716L762.609 353.365ZM754.116 350.992L755.996 349.977L757.877 350.992V353.008L755.996 354.023L754.116 353.008V350.992Z" fill="#717078"/>
<path opacity="0.2" d="M542.247 71.4544L540.619 72.1207L539.062 71.5238L538.786 69.4988L540.126 68.5065L541.873 68.7122L542.064 67.3037L540.737 67.1482L540.901 65.8582L539.453 65.6833L539.228 67.3829L537.888 68.3751L535.975 67.6047L535.758 66.0156L536.833 64.6443L535.669 63.7932L534.859 64.8277L533.801 64.0482L532.908 65.1799L534.31 66.2133L534.527 67.8024L532.855 69.062L531.298 68.4651L530.654 66.8841L529.314 67.4395L529.824 68.6377L528.587 69.1431L529.149 70.4487L530.777 69.7825L532.334 70.3794L532.611 72.4115L531.271 73.4037L529.524 73.198L529.333 74.6065L530.66 74.762L530.488 76.046L531.936 76.2209L532.161 74.5213L533.501 73.5291L535.414 74.2994L535.631 75.8885L534.556 77.2599L535.72 78.111L536.53 77.0764L537.588 77.856L538.474 76.7252L537.079 75.6909L536.862 74.1018L538.533 72.8351L540.09 73.432L540.763 75.009L542.075 74.4646L541.565 73.2665L542.802 72.7611L542.247 71.4544ZM533.746 70.1867L535.417 68.92L537.367 69.6925L537.643 71.7175L535.972 72.9842L534.022 72.2117L533.746 70.1867Z" fill="#717078"/>
<path opacity="0.5" d="M438.247 222.454L436.619 223.12L435.062 222.523L434.786 220.498L436.126 219.506L437.873 219.712L438.064 218.303L436.737 218.148L436.901 216.858L435.453 216.683L435.228 218.382L433.888 219.375L431.975 218.604L431.758 217.015L432.833 215.644L431.669 214.793L430.859 215.827L429.801 215.048L428.908 216.179L430.31 217.213L430.527 218.802L428.855 220.062L427.298 219.465L426.654 217.884L425.314 218.439L425.824 219.637L424.587 220.143L425.149 221.448L426.777 220.782L428.334 221.379L428.611 223.411L427.271 224.403L425.524 224.198L425.333 225.606L426.66 225.762L426.488 227.046L427.936 227.22L428.161 225.521L429.501 224.529L431.414 225.299L431.631 226.888L430.556 228.259L431.72 229.111L432.53 228.076L433.588 228.856L434.474 227.725L433.079 226.69L432.862 225.101L434.533 223.835L436.09 224.432L436.763 226.009L438.075 225.464L437.565 224.266L438.802 223.761L438.247 222.454ZM429.746 221.186L431.417 219.92L433.367 220.692L433.643 222.717L431.972 223.984L430.022 223.211L429.746 221.186Z" fill="#717078"/>
<path opacity="0.2" d="M688.247 78.4544L686.619 79.1207L685.062 78.5238L684.786 76.4988L686.126 75.5065L687.873 75.7122L688.064 74.3037L686.737 74.1482L686.901 72.8582L685.453 72.6833L685.228 74.3829L683.888 75.3751L681.975 74.6047L681.758 73.0156L682.833 71.6443L681.669 70.7932L680.859 71.8277L679.801 71.0482L678.908 72.1799L680.31 73.2133L680.527 74.8024L678.855 76.062L677.298 75.4651L676.654 73.8841L675.314 74.4395L675.824 75.6377L674.587 76.1431L675.149 77.4487L676.777 76.7825L678.334 77.3794L678.611 79.4115L677.271 80.4037L675.524 80.198L675.333 81.6065L676.66 81.762L676.488 83.046L677.936 83.2209L678.161 81.5213L679.501 80.5291L681.414 81.2994L681.631 82.8885L680.556 84.2599L681.72 85.111L682.53 84.0764L683.588 84.856L684.474 83.7252L683.079 82.6909L682.862 81.1018L684.533 79.8351L686.09 80.432L686.763 82.009L688.075 81.4646L687.565 80.2665L688.802 79.7611L688.247 78.4544ZM679.746 77.1867L681.417 75.92L683.367 76.6925L683.643 78.7175L681.972 79.9842L680.022 79.2117L679.746 77.1867Z" fill="#717078"/>
<path opacity="0.5" d="M615.247 201.454L613.619 202.121L612.062 201.524L611.786 199.499L613.126 198.507L614.873 198.712L615.064 197.304L613.737 197.148L613.901 195.858L612.453 195.683L612.228 197.383L610.888 198.375L608.975 197.605L608.758 196.016L609.833 194.644L608.669 193.793L607.859 194.828L606.801 194.048L605.908 195.18L607.31 196.213L607.527 197.802L605.855 199.062L604.298 198.465L603.654 196.884L602.314 197.44L602.824 198.638L601.587 199.143L602.149 200.449L603.777 199.783L605.334 200.379L605.611 202.411L604.271 203.404L602.524 203.198L602.333 204.606L603.66 204.762L603.488 206.046L604.936 206.221L605.161 204.521L606.501 203.529L608.414 204.299L608.631 205.889L607.556 207.26L608.72 208.111L609.53 207.076L610.588 207.856L611.474 206.725L610.079 205.691L609.862 204.102L611.533 202.835L613.09 203.432L613.763 205.009L615.075 204.465L614.565 203.267L615.802 202.761L615.247 201.454ZM606.746 200.187L608.417 198.92L610.367 199.692L610.643 201.718L608.972 202.984L607.022 202.212L606.746 200.187Z" fill="#717078"/>
<path d="M482.247 286.454L480.619 287.12L479.062 286.523L478.786 284.498L480.126 283.506L481.873 283.712L482.064 282.303L480.737 282.148L480.901 280.858L479.453 280.683L479.228 282.382L477.888 283.375L475.975 282.604L475.758 281.015L476.833 279.644L475.669 278.793L474.859 279.827L473.801 279.048L472.908 280.179L474.31 281.213L474.527 282.802L472.855 284.062L471.298 283.465L470.654 281.884L469.314 282.439L469.824 283.637L468.587 284.143L469.149 285.448L470.777 284.782L472.334 285.379L472.611 287.411L471.271 288.403L469.524 288.198L469.333 289.606L470.66 289.762L470.488 291.046L471.936 291.22L472.161 289.521L473.501 288.529L475.414 289.299L475.631 290.888L474.556 292.259L475.72 293.111L476.53 292.076L477.588 292.856L478.474 291.725L477.079 290.69L476.862 289.101L478.533 287.835L480.09 288.432L480.763 290.009L482.075 289.464L481.565 288.266L482.802 287.761L482.247 286.454ZM473.746 285.186L475.417 283.92L477.367 284.692L477.643 286.717L475.972 287.984L474.022 287.211L473.746 285.186Z" fill="#717078"/>
<path d="M623.247 328.454L621.619 329.12L620.062 328.523L619.786 326.498L621.126 325.506L622.873 325.712L623.064 324.303L621.737 324.148L621.901 322.858L620.453 322.683L620.228 324.382L618.888 325.375L616.975 324.604L616.758 323.015L617.833 321.644L616.669 320.793L615.859 321.827L614.801 321.048L613.908 322.179L615.31 323.213L615.527 324.802L613.855 326.062L612.298 325.465L611.654 323.884L610.314 324.439L610.824 325.637L609.587 326.143L610.149 327.448L611.777 326.782L613.334 327.379L613.611 329.411L612.271 330.403L610.524 330.198L610.333 331.606L611.66 331.762L611.488 333.046L612.936 333.22L613.161 331.521L614.501 330.529L616.414 331.299L616.631 332.888L615.556 334.259L616.72 335.111L617.53 334.076L618.588 334.856L619.474 333.725L618.079 332.69L617.862 331.101L619.533 329.835L621.09 330.432L621.763 332.009L623.075 331.464L622.565 330.266L623.802 329.761L623.247 328.454ZM614.746 327.186L616.417 325.92L618.367 326.692L618.643 328.717L616.972 329.984L615.022 329.211L614.746 327.186Z" fill="#717078"/>
<path opacity="0.1" d="M633.962 41.7839L632.344 41.0941L631.674 39.5672L632.921 37.9473L634.568 38.2032L635.65 39.5904L636.786 38.7366L635.964 37.6834L636.996 36.8929L636.104 35.7402L634.736 36.7744L633.089 36.5185L632.293 34.6166L633.271 33.3455L635.001 33.1459L634.789 31.72L633.483 31.8706L633.294 30.5701L631.861 30.7302L632.112 32.4541L631.134 33.7252L629.063 33.4209L628.393 31.8939L629.065 30.325L627.728 29.7617L627.235 30.9667L626.006 30.4421L625.472 31.7594L627.09 32.4492L627.759 33.9761L626.509 35.6016L624.861 35.3458L623.78 33.9586L622.643 34.8123L623.465 35.8655L622.431 36.646L623.324 37.7986L624.692 36.7645L626.339 37.0203L627.135 38.9222L626.157 40.1933L624.427 40.3929L624.639 41.8189L625.945 41.6683L626.134 42.9688L627.561 42.8042L627.316 41.0847L628.294 39.8136L630.369 40.1123L631.039 41.6393L630.39 43.2261L631.7 43.7772L632.193 42.5722L633.422 43.0967L633.962 41.7839ZM628.889 34.8453L630.965 35.144L631.785 37.0738L630.539 38.6936L628.463 38.3949L627.643 36.4651L628.889 34.8453Z" fill="#717078"/>
<path opacity="0.3" d="M456.962 137.784L455.344 137.094L454.674 135.567L455.921 133.947L457.568 134.203L458.65 135.59L459.786 134.737L458.964 133.683L459.996 132.893L459.104 131.74L457.736 132.774L456.089 132.519L455.293 130.617L456.271 129.346L458.001 129.146L457.789 127.72L456.483 127.871L456.294 126.57L454.861 126.73L455.112 128.454L454.134 129.725L452.063 129.421L451.393 127.894L452.065 126.325L450.728 125.762L450.235 126.967L449.006 126.442L448.472 127.759L450.09 128.449L450.759 129.976L449.509 131.602L447.861 131.346L446.78 129.959L445.643 130.812L446.465 131.866L445.431 132.646L446.324 133.799L447.692 132.764L449.339 133.02L450.135 134.922L449.157 136.193L447.427 136.393L447.639 137.819L448.945 137.668L449.134 138.969L450.561 138.804L450.316 137.085L451.294 135.814L453.369 136.112L454.039 137.639L453.39 139.226L454.7 139.777L455.193 138.572L456.422 139.097L456.962 137.784ZM451.889 130.845L453.965 131.144L454.785 133.074L453.539 134.694L451.463 134.395L450.643 132.465L451.889 130.845Z" fill="#717078"/>
<path opacity="0.3" d="M766.962 137.784L765.344 137.094L764.674 135.567L765.921 133.947L767.568 134.203L768.65 135.59L769.786 134.737L768.964 133.683L769.996 132.893L769.104 131.74L767.736 132.774L766.089 132.519L765.293 130.617L766.271 129.346L768.001 129.146L767.789 127.72L766.483 127.871L766.294 126.57L764.861 126.73L765.112 128.454L764.134 129.725L762.063 129.421L761.393 127.894L762.065 126.325L760.728 125.762L760.235 126.967L759.006 126.442L758.472 127.759L760.09 128.449L760.759 129.976L759.509 131.602L757.861 131.346L756.78 129.959L755.643 130.812L756.465 131.866L755.431 132.646L756.324 133.799L757.692 132.764L759.339 133.02L760.135 134.922L759.157 136.193L757.427 136.393L757.639 137.819L758.945 137.668L759.134 138.969L760.561 138.804L760.316 137.085L761.294 135.814L763.369 136.112L764.039 137.639L763.39 139.226L764.7 139.777L765.193 138.572L766.422 139.097L766.962 137.784ZM761.889 130.845L763.965 131.144L764.785 133.074L763.539 134.694L761.463 134.395L760.643 132.465L761.889 130.845Z" fill="#717078"/>
<path d="M759.962 264.784L758.344 264.094L757.674 262.567L758.921 260.947L760.568 261.203L761.65 262.59L762.786 261.737L761.964 260.683L762.996 259.893L762.104 258.74L760.736 259.774L759.089 259.519L758.293 257.617L759.271 256.346L761.001 256.146L760.789 254.72L759.483 254.871L759.294 253.57L757.861 253.73L758.112 255.454L757.134 256.725L755.063 256.421L754.393 254.894L755.065 253.325L753.728 252.762L753.235 253.967L752.006 253.442L751.472 254.759L753.09 255.449L753.759 256.976L752.509 258.602L750.861 258.346L749.78 256.959L748.643 257.812L749.465 258.866L748.431 259.646L749.324 260.799L750.692 259.764L752.339 260.02L753.135 261.922L752.157 263.193L750.427 263.393L750.639 264.819L751.945 264.668L752.134 265.969L753.561 265.804L753.316 264.085L754.294 262.814L756.369 263.112L757.039 264.639L756.39 266.226L757.7 266.777L758.193 265.572L759.422 266.097L759.962 264.784ZM754.889 257.845L756.965 258.144L757.785 260.074L756.539 261.694L754.463 261.395L753.643 259.465L754.889 257.845Z" fill="#717078"/>
<path d="M679.962 368.784L678.344 368.094L677.674 366.567L678.921 364.947L680.568 365.203L681.65 366.59L682.786 365.737L681.964 364.683L682.996 363.893L682.104 362.74L680.736 363.774L679.089 363.519L678.293 361.617L679.271 360.346L681.001 360.146L680.789 358.72L679.483 358.871L679.294 357.57L677.861 357.73L678.112 359.454L677.134 360.725L675.063 360.421L674.393 358.894L675.065 357.325L673.728 356.762L673.235 357.967L672.006 357.442L671.472 358.759L673.09 359.449L673.759 360.976L672.509 362.602L670.861 362.346L669.78 360.959L668.643 361.812L669.465 362.866L668.431 363.646L669.324 364.799L670.692 363.764L672.339 364.02L673.135 365.922L672.157 367.193L670.427 367.393L670.639 368.819L671.945 368.668L672.134 369.969L673.561 369.804L673.316 368.085L674.294 366.814L676.369 367.112L677.039 368.639L676.39 370.226L677.7 370.777L678.193 369.572L679.422 370.097L679.962 368.784ZM674.889 361.845L676.965 362.144L677.785 364.074L676.539 365.694L674.463 365.395L673.643 363.465L674.889 361.845Z" fill="#717078"/>
<path d="M566.962 264.784L565.344 264.094L564.674 262.567L565.921 260.947L567.568 261.203L568.65 262.59L569.786 261.737L568.964 260.683L569.996 259.893L569.104 258.74L567.736 259.774L566.089 259.519L565.293 257.617L566.271 256.346L568.001 256.146L567.789 254.72L566.483 254.871L566.294 253.57L564.861 253.73L565.112 255.454L564.134 256.725L562.063 256.421L561.393 254.894L562.065 253.325L560.728 252.762L560.235 253.967L559.006 253.442L558.472 254.759L560.09 255.449L560.759 256.976L559.509 258.602L557.861 258.346L556.78 256.959L555.643 257.812L556.465 258.866L555.431 259.646L556.324 260.799L557.692 259.764L559.339 260.02L560.135 261.922L559.157 263.193L557.427 263.393L557.639 264.819L558.945 264.668L559.134 265.969L560.561 265.804L560.316 264.085L561.294 262.814L563.369 263.112L564.039 264.639L563.39 266.226L564.7 266.777L565.193 265.572L566.422 266.097L566.962 264.784ZM561.889 257.845L563.965 258.144L564.785 260.074L563.539 261.694L561.463 261.395L560.643 259.465L561.889 257.845Z" fill="#717078"/>
<path d="M447.962 362.784L446.344 362.094L445.674 360.567L446.921 358.947L448.568 359.203L449.65 360.59L450.786 359.737L449.964 358.683L450.996 357.893L450.104 356.74L448.736 357.774L447.089 357.519L446.293 355.617L447.271 354.346L449.001 354.146L448.789 352.72L447.483 352.871L447.294 351.57L445.861 351.73L446.112 353.454L445.134 354.725L443.063 354.421L442.393 352.894L443.065 351.325L441.728 350.762L441.235 351.967L440.006 351.442L439.472 352.759L441.09 353.449L441.759 354.976L440.509 356.602L438.861 356.346L437.78 354.959L436.643 355.812L437.465 356.866L436.431 357.646L437.324 358.799L438.692 357.764L440.339 358.02L441.135 359.922L440.157 361.193L438.427 361.393L438.639 362.819L439.945 362.668L440.134 363.969L441.561 363.804L441.316 362.085L442.294 360.814L444.369 361.112L445.039 362.639L444.39 364.226L445.7 364.777L446.193 363.572L447.422 364.097L447.962 362.784ZM442.889 355.845L444.965 356.144L445.785 358.074L444.539 359.694L442.463 359.395L441.643 357.465L442.889 355.845Z" fill="#717078"/>
<path opacity="0.1" d="M839.609 43.365L837.856 43.799L836.351 43.008V40.992L837.856 40.201L839.609 40.635L840 39.284L838.668 38.955L839.015 37.716L837.563 37.352L837.096 38.983L835.592 39.774L833.749 38.766V37.184L835.035 35.987L833.967 35L832.996 35.903L832.026 35L830.958 35.987L832.244 37.184V38.766L830.363 39.774L828.859 38.983L828.422 37.352L826.978 37.716L827.332 38.955L826 39.284L826.391 40.635L828.144 40.201L829.649 40.992V43.015L828.144 43.806L826.391 43.372L826 44.723L827.332 45.052L826.978 46.284L828.43 46.648L828.896 45.017L830.401 44.226L832.244 45.234V46.816L830.958 48.013L832.026 49L832.996 48.097L833.967 49L835.027 48.013L833.749 46.816V45.234L835.629 44.219L837.134 45.01L837.6 46.641L839.015 46.284L838.661 45.045L839.992 44.716L839.609 43.365ZM831.116 40.992L832.996 39.977L834.877 40.992V43.008L832.996 44.023L831.116 43.008V40.992Z" fill="#717078"/>
<path d="M920.609 182.365L918.856 182.799L917.351 182.008V179.992L918.856 179.201L920.609 179.635L921 178.284L919.668 177.955L920.015 176.716L918.563 176.352L918.096 177.983L916.592 178.774L914.749 177.766V176.184L916.035 174.987L914.967 174L913.996 174.903L913.026 174L911.958 174.987L913.244 176.184V177.766L911.363 178.774L909.859 177.983L909.422 176.352L907.978 176.716L908.332 177.955L907 178.284L907.391 179.635L909.144 179.201L910.649 179.992V182.015L909.144 182.806L907.391 182.372L907 183.723L908.332 184.052L907.978 185.284L909.43 185.648L909.896 184.017L911.401 183.226L913.244 184.234V185.816L911.958 187.013L913.026 188L913.996 187.097L914.967 188L916.027 187.013L914.749 185.816V184.234L916.629 183.219L918.134 184.01L918.6 185.641L920.015 185.284L919.661 184.045L920.992 183.716L920.609 182.365ZM912.116 179.992L913.996 178.977L915.877 179.992V182.008L913.996 183.023L912.116 182.008V179.992Z" fill="#717078"/>
<path d="M950.609 366.365L948.856 366.799L947.351 366.008V363.992L948.856 363.201L950.609 363.635L951 362.284L949.668 361.955L950.015 360.716L948.563 360.352L948.096 361.983L946.592 362.774L944.749 361.766V360.184L946.035 358.987L944.967 358L943.996 358.903L943.026 358L941.958 358.987L943.244 360.184V361.766L941.363 362.774L939.859 361.983L939.422 360.352L937.978 360.716L938.332 361.955L937 362.284L937.391 363.635L939.144 363.201L940.649 363.992V366.015L939.144 366.806L937.391 366.372L937 367.723L938.332 368.052L937.978 369.284L939.43 369.648L939.896 368.017L941.401 367.226L943.244 368.234V369.816L941.958 371.013L943.026 372L943.996 371.097L944.967 372L946.027 371.013L944.749 369.816V368.234L946.629 367.219L948.134 368.01L948.6 369.641L950.015 369.284L949.661 368.045L950.992 367.716L950.609 366.365ZM942.116 363.992L943.996 362.977L945.877 363.992V366.008L943.996 367.023L942.116 366.008V363.992Z" fill="#717078"/>
<path d="M1154.61 36.365L1152.86 36.799L1151.35 36.008V33.992L1152.86 33.201L1154.61 33.635L1155 32.284L1153.67 31.955L1154.01 30.716L1152.56 30.352L1152.1 31.983L1150.59 32.774L1148.75 31.766V30.184L1150.03 28.987L1148.97 28L1148 28.903L1147.03 28L1145.96 28.987L1147.24 30.184V31.766L1145.36 32.774L1143.86 31.983L1143.42 30.352L1141.98 30.716L1142.33 31.955L1141 32.284L1141.39 33.635L1143.14 33.201L1144.65 33.992V36.015L1143.14 36.806L1141.39 36.372L1141 37.723L1142.33 38.052L1141.98 39.284L1143.43 39.648L1143.9 38.017L1145.4 37.226L1147.24 38.234V39.816L1145.96 41.013L1147.03 42L1148 41.097L1148.97 42L1150.03 41.013L1148.75 39.816V38.234L1150.63 37.219L1152.13 38.01L1152.6 39.641L1154.01 39.284L1153.66 38.045L1154.99 37.716L1154.61 36.365ZM1146.12 33.992L1148 32.977L1149.88 33.992V36.008L1148 37.023L1146.12 36.008V33.992Z" fill="#717078"/>
<path d="M1014.61 121.365L1012.86 121.799L1011.35 121.008V118.992L1012.86 118.201L1014.61 118.635L1015 117.284L1013.67 116.955L1014.01 115.716L1012.56 115.352L1012.1 116.983L1010.59 117.774L1008.75 116.766V115.184L1010.03 113.987L1008.97 113L1008 113.903L1007.03 113L1005.96 113.987L1007.24 115.184V116.766L1005.36 117.774L1003.86 116.983L1003.42 115.352L1001.98 115.716L1002.33 116.955L1001 117.284L1001.39 118.635L1003.14 118.201L1004.65 118.992V121.015L1003.14 121.806L1001.39 121.372L1001 122.723L1002.33 123.052L1001.98 124.284L1003.43 124.648L1003.9 123.017L1005.4 122.226L1007.24 123.234V124.816L1005.96 126.013L1007.03 127L1008 126.097L1008.97 127L1010.03 126.013L1008.75 124.816V123.234L1010.63 122.219L1012.13 123.01L1012.6 124.641L1014.01 124.284L1013.66 123.045L1014.99 122.716L1014.61 121.365ZM1006.12 118.992L1008 117.977L1009.88 118.992V121.008L1008 122.023L1006.12 121.008V118.992Z" fill="#717078"/>
<path d="M1107.61 183.365L1105.86 183.799L1104.35 183.008V180.992L1105.86 180.201L1107.61 180.635L1108 179.284L1106.67 178.955L1107.01 177.716L1105.56 177.352L1105.1 178.983L1103.59 179.774L1101.75 178.766V177.184L1103.03 175.987L1101.97 175L1101 175.903L1100.03 175L1098.96 175.987L1100.24 177.184V178.766L1098.36 179.774L1096.86 178.983L1096.42 177.352L1094.98 177.716L1095.33 178.955L1094 179.284L1094.39 180.635L1096.14 180.201L1097.65 180.992V183.015L1096.14 183.806L1094.39 183.372L1094 184.723L1095.33 185.052L1094.98 186.284L1096.43 186.648L1096.9 185.017L1098.4 184.226L1100.24 185.234V186.816L1098.96 188.013L1100.03 189L1101 188.097L1101.97 189L1103.03 188.013L1101.75 186.816V185.234L1103.63 184.219L1105.13 185.01L1105.6 186.641L1107.01 186.284L1106.66 185.045L1107.99 184.716L1107.61 183.365ZM1099.12 180.992L1101 179.977L1102.88 180.992V183.008L1101 184.023L1099.12 183.008V180.992Z" fill="#717078"/>
<path d="M1081.61 261.365L1079.86 261.799L1078.35 261.008V258.992L1079.86 258.201L1081.61 258.635L1082 257.284L1080.67 256.955L1081.01 255.716L1079.56 255.352L1079.1 256.983L1077.59 257.774L1075.75 256.766V255.184L1077.03 253.987L1075.97 253L1075 253.903L1074.03 253L1072.96 253.987L1074.24 255.184V256.766L1072.36 257.774L1070.86 256.983L1070.42 255.352L1068.98 255.716L1069.33 256.955L1068 257.284L1068.39 258.635L1070.14 258.201L1071.65 258.992V261.015L1070.14 261.806L1068.39 261.372L1068 262.723L1069.33 263.052L1068.98 264.284L1070.43 264.648L1070.9 263.017L1072.4 262.226L1074.24 263.234V264.816L1072.96 266.013L1074.03 267L1075 266.097L1075.97 267L1077.03 266.013L1075.75 264.816V263.234L1077.63 262.219L1079.13 263.01L1079.6 264.641L1081.01 264.284L1080.66 263.045L1081.99 262.716L1081.61 261.365ZM1073.12 258.992L1075 257.977L1076.88 258.992V261.008L1075 262.023L1073.12 261.008V258.992Z" fill="#717078"/>
<path d="M1162.61 353.365L1160.86 353.799L1159.35 353.008V350.992L1160.86 350.201L1162.61 350.635L1163 349.284L1161.67 348.955L1162.01 347.716L1160.56 347.352L1160.1 348.983L1158.59 349.774L1156.75 348.766V347.184L1158.03 345.987L1156.97 345L1156 345.903L1155.03 345L1153.96 345.987L1155.24 347.184V348.766L1153.36 349.774L1151.86 348.983L1151.42 347.352L1149.98 347.716L1150.33 348.955L1149 349.284L1149.39 350.635L1151.14 350.201L1152.65 350.992V353.015L1151.14 353.806L1149.39 353.372L1149 354.723L1150.33 355.052L1149.98 356.284L1151.43 356.648L1151.9 355.017L1153.4 354.226L1155.24 355.234V356.816L1153.96 358.013L1155.03 359L1156 358.097L1156.97 359L1158.03 358.013L1156.75 356.816V355.234L1158.63 354.219L1160.13 355.01L1160.6 356.641L1162.01 356.284L1161.66 355.045L1162.99 354.716L1162.61 353.365ZM1154.12 350.992L1156 349.977L1157.88 350.992V353.008L1156 354.023L1154.12 353.008V350.992Z" fill="#717078"/>
<path d="M942.247 71.4544L940.619 72.1207L939.062 71.5238L938.786 69.4988L940.126 68.5065L941.873 68.7122L942.064 67.3037L940.737 67.1482L940.901 65.8582L939.453 65.6833L939.228 67.3829L937.888 68.3751L935.975 67.6047L935.758 66.0156L936.833 64.6443L935.669 63.7932L934.859 64.8277L933.801 64.0482L932.908 65.1799L934.31 66.2133L934.527 67.8024L932.855 69.062L931.298 68.4651L930.654 66.8841L929.314 67.4395L929.824 68.6377L928.587 69.1431L929.149 70.4487L930.777 69.7825L932.334 70.3794L932.611 72.4115L931.271 73.4037L929.524 73.198L929.333 74.6065L930.66 74.762L930.488 76.046L931.936 76.2209L932.161 74.5213L933.501 73.5291L935.414 74.2994L935.631 75.8885L934.556 77.2599L935.72 78.111L936.53 77.0764L937.588 77.856L938.474 76.7252L937.079 75.6909L936.862 74.1018L938.533 72.8351L940.09 73.432L940.763 75.009L942.075 74.4646L941.565 73.2665L942.802 72.7611L942.247 71.4544ZM933.746 70.1867L935.417 68.92L937.367 69.6925L937.643 71.7175L935.972 72.9842L934.022 72.2117L933.746 70.1867Z" fill="#717078"/>
<path d="M838.247 222.454L836.619 223.12L835.062 222.523L834.786 220.498L836.126 219.506L837.873 219.712L838.064 218.303L836.737 218.148L836.901 216.858L835.453 216.683L835.228 218.382L833.888 219.375L831.975 218.604L831.758 217.015L832.833 215.644L831.669 214.793L830.859 215.827L829.801 215.048L828.908 216.179L830.31 217.213L830.527 218.802L828.855 220.062L827.298 219.465L826.654 217.884L825.314 218.439L825.824 219.637L824.587 220.143L825.149 221.448L826.777 220.782L828.334 221.379L828.611 223.411L827.271 224.403L825.524 224.198L825.333 225.606L826.66 225.762L826.488 227.046L827.936 227.22L828.161 225.521L829.501 224.529L831.414 225.299L831.631 226.888L830.556 228.259L831.72 229.111L832.53 228.076L833.588 228.856L834.474 227.725L833.079 226.69L832.862 225.101L834.533 223.835L836.09 224.432L836.763 226.009L838.075 225.464L837.565 224.266L838.802 223.761L838.247 222.454ZM829.746 221.186L831.417 219.92L833.367 220.692L833.643 222.717L831.972 223.984L830.022 223.211L829.746 221.186Z" fill="#717078"/>
<path d="M1088.25 78.4544L1086.62 79.1207L1085.06 78.5238L1084.79 76.4988L1086.13 75.5065L1087.87 75.7122L1088.06 74.3037L1086.74 74.1482L1086.9 72.8582L1085.45 72.6833L1085.23 74.3829L1083.89 75.3751L1081.98 74.6047L1081.76 73.0156L1082.83 71.6443L1081.67 70.7932L1080.86 71.8277L1079.8 71.0482L1078.91 72.1799L1080.31 73.2133L1080.53 74.8024L1078.85 76.062L1077.3 75.4651L1076.65 73.8841L1075.31 74.4395L1075.82 75.6377L1074.59 76.1431L1075.15 77.4487L1076.78 76.7825L1078.33 77.3794L1078.61 79.4115L1077.27 80.4037L1075.52 80.198L1075.33 81.6065L1076.66 81.762L1076.49 83.046L1077.94 83.2209L1078.16 81.5213L1079.5 80.5291L1081.41 81.2994L1081.63 82.8885L1080.56 84.2599L1081.72 85.111L1082.53 84.0764L1083.59 84.856L1084.47 83.7252L1083.08 82.6909L1082.86 81.1018L1084.53 79.8351L1086.09 80.432L1086.76 82.009L1088.08 81.4646L1087.56 80.2665L1088.8 79.7611L1088.25 78.4544ZM1079.75 77.1867L1081.42 75.92L1083.37 76.6925L1083.64 78.7175L1081.97 79.9842L1080.02 79.2117L1079.75 77.1867Z" fill="#717078"/>
<path d="M1015.25 201.454L1013.62 202.121L1012.06 201.524L1011.79 199.499L1013.13 198.507L1014.87 198.712L1015.06 197.304L1013.74 197.148L1013.9 195.858L1012.45 195.683L1012.23 197.383L1010.89 198.375L1008.98 197.605L1008.76 196.016L1009.83 194.644L1008.67 193.793L1007.86 194.828L1006.8 194.048L1005.91 195.18L1007.31 196.213L1007.53 197.802L1005.85 199.062L1004.3 198.465L1003.65 196.884L1002.31 197.44L1002.82 198.638L1001.59 199.143L1002.15 200.449L1003.78 199.783L1005.33 200.379L1005.61 202.411L1004.27 203.404L1002.52 203.198L1002.33 204.606L1003.66 204.762L1003.49 206.046L1004.94 206.221L1005.16 204.521L1006.5 203.529L1008.41 204.299L1008.63 205.889L1007.56 207.26L1008.72 208.111L1009.53 207.076L1010.59 207.856L1011.47 206.725L1010.08 205.691L1009.86 204.102L1011.53 202.835L1013.09 203.432L1013.76 205.009L1015.08 204.465L1014.56 203.267L1015.8 202.761L1015.25 201.454ZM1006.75 200.187L1008.42 198.92L1010.37 199.692L1010.64 201.718L1008.97 202.984L1007.02 202.212L1006.75 200.187Z" fill="#717078"/>
<path d="M882.247 286.454L880.619 287.12L879.062 286.523L878.786 284.498L880.126 283.506L881.873 283.712L882.064 282.303L880.737 282.148L880.901 280.858L879.453 280.683L879.228 282.382L877.888 283.375L875.975 282.604L875.758 281.015L876.833 279.644L875.669 278.793L874.859 279.827L873.801 279.048L872.908 280.179L874.31 281.213L874.527 282.802L872.855 284.062L871.298 283.465L870.654 281.884L869.314 282.439L869.824 283.637L868.587 284.143L869.149 285.448L870.777 284.782L872.334 285.379L872.611 287.411L871.271 288.403L869.524 288.198L869.333 289.606L870.66 289.762L870.488 291.046L871.936 291.22L872.161 289.521L873.501 288.529L875.414 289.299L875.631 290.888L874.556 292.259L875.72 293.111L876.53 292.076L877.588 292.856L878.474 291.725L877.079 290.69L876.862 289.101L878.533 287.835L880.09 288.432L880.763 290.009L882.075 289.464L881.565 288.266L882.802 287.761L882.247 286.454ZM873.746 285.186L875.417 283.92L877.367 284.692L877.643 286.717L875.972 287.984L874.022 287.211L873.746 285.186Z" fill="#717078"/>
<path d="M1023.25 328.454L1021.62 329.12L1020.06 328.523L1019.79 326.498L1021.13 325.506L1022.87 325.712L1023.06 324.303L1021.74 324.148L1021.9 322.858L1020.45 322.683L1020.23 324.382L1018.89 325.375L1016.98 324.604L1016.76 323.015L1017.83 321.644L1016.67 320.793L1015.86 321.827L1014.8 321.048L1013.91 322.179L1015.31 323.213L1015.53 324.802L1013.85 326.062L1012.3 325.465L1011.65 323.884L1010.31 324.439L1010.82 325.637L1009.59 326.143L1010.15 327.448L1011.78 326.782L1013.33 327.379L1013.61 329.411L1012.27 330.403L1010.52 330.198L1010.33 331.606L1011.66 331.762L1011.49 333.046L1012.94 333.22L1013.16 331.521L1014.5 330.529L1016.41 331.299L1016.63 332.888L1015.56 334.259L1016.72 335.111L1017.53 334.076L1018.59 334.856L1019.47 333.725L1018.08 332.69L1017.86 331.101L1019.53 329.835L1021.09 330.432L1021.76 332.009L1023.08 331.464L1022.56 330.266L1023.8 329.761L1023.25 328.454ZM1014.75 327.186L1016.42 325.92L1018.37 326.692L1018.64 328.717L1016.97 329.984L1015.02 329.211L1014.75 327.186Z" fill="#717078"/>
<path d="M1033.96 41.7839L1032.34 41.0941L1031.67 39.5672L1032.92 37.9473L1034.57 38.2032L1035.65 39.5904L1036.79 38.7366L1035.96 37.6834L1037 36.8929L1036.1 35.7402L1034.74 36.7744L1033.09 36.5185L1032.29 34.6166L1033.27 33.3455L1035 33.1459L1034.79 31.72L1033.48 31.8706L1033.29 30.5701L1031.86 30.7302L1032.11 32.4541L1031.13 33.7252L1029.06 33.4209L1028.39 31.8939L1029.07 30.325L1027.73 29.7617L1027.23 30.9667L1026.01 30.4421L1025.47 31.7594L1027.09 32.4492L1027.76 33.9761L1026.51 35.6016L1024.86 35.3458L1023.78 33.9586L1022.64 34.8123L1023.47 35.8655L1022.43 36.646L1023.32 37.7986L1024.69 36.7645L1026.34 37.0203L1027.14 38.9222L1026.16 40.1933L1024.43 40.3929L1024.64 41.8189L1025.94 41.6683L1026.13 42.9688L1027.56 42.8042L1027.32 41.0847L1028.29 39.8136L1030.37 40.1123L1031.04 41.6393L1030.39 43.2261L1031.7 43.7772L1032.19 42.5722L1033.42 43.0967L1033.96 41.7839ZM1028.89 34.8453L1030.96 35.144L1031.79 37.0738L1030.54 38.6936L1028.46 38.3949L1027.64 36.4651L1028.89 34.8453Z" fill="#717078"/>
<path d="M856.962 137.784L855.344 137.094L854.674 135.567L855.921 133.947L857.568 134.203L858.65 135.59L859.786 134.737L858.964 133.683L859.996 132.893L859.104 131.74L857.736 132.774L856.089 132.519L855.293 130.617L856.271 129.346L858.001 129.146L857.789 127.72L856.483 127.871L856.294 126.57L854.861 126.73L855.112 128.454L854.134 129.725L852.063 129.421L851.393 127.894L852.065 126.325L850.728 125.762L850.235 126.967L849.006 126.442L848.472 127.759L850.09 128.449L850.759 129.976L849.509 131.602L847.861 131.346L846.78 129.959L845.643 130.812L846.465 131.866L845.431 132.646L846.324 133.799L847.692 132.764L849.339 133.02L850.135 134.922L849.157 136.193L847.427 136.393L847.639 137.819L848.945 137.668L849.134 138.969L850.561 138.804L850.316 137.085L851.294 135.814L853.369 136.112L854.039 137.639L853.39 139.226L854.7 139.777L855.193 138.572L856.422 139.097L856.962 137.784ZM851.889 130.845L853.965 131.144L854.785 133.074L853.539 134.694L851.463 134.395L850.643 132.465L851.889 130.845Z" fill="#717078"/>
<path d="M1166.96 137.784L1165.34 137.094L1164.67 135.567L1165.92 133.947L1167.57 134.203L1168.65 135.59L1169.79 134.737L1168.96 133.683L1170 132.893L1169.1 131.74L1167.74 132.774L1166.09 132.519L1165.29 130.617L1166.27 129.346L1168 129.146L1167.79 127.72L1166.48 127.871L1166.29 126.57L1164.86 126.73L1165.11 128.454L1164.13 129.725L1162.06 129.421L1161.39 127.894L1162.07 126.325L1160.73 125.762L1160.23 126.967L1159.01 126.442L1158.47 127.759L1160.09 128.449L1160.76 129.976L1159.51 131.602L1157.86 131.346L1156.78 129.959L1155.64 130.812L1156.47 131.866L1155.43 132.646L1156.32 133.799L1157.69 132.764L1159.34 133.02L1160.14 134.922L1159.16 136.193L1157.43 136.393L1157.64 137.819L1158.94 137.668L1159.13 138.969L1160.56 138.804L1160.32 137.085L1161.29 135.814L1163.37 136.112L1164.04 137.639L1163.39 139.226L1164.7 139.777L1165.19 138.572L1166.42 139.097L1166.96 137.784ZM1161.89 130.845L1163.96 131.144L1164.79 133.074L1163.54 134.694L1161.46 134.395L1160.64 132.465L1161.89 130.845Z" fill="#717078"/>
<path d="M1159.96 264.784L1158.34 264.094L1157.67 262.567L1158.92 260.947L1160.57 261.203L1161.65 262.59L1162.79 261.737L1161.96 260.683L1163 259.893L1162.1 258.74L1160.74 259.774L1159.09 259.519L1158.29 257.617L1159.27 256.346L1161 256.146L1160.79 254.72L1159.48 254.871L1159.29 253.57L1157.86 253.73L1158.11 255.454L1157.13 256.725L1155.06 256.421L1154.39 254.894L1155.07 253.325L1153.73 252.762L1153.23 253.967L1152.01 253.442L1151.47 254.759L1153.09 255.449L1153.76 256.976L1152.51 258.602L1150.86 258.346L1149.78 256.959L1148.64 257.812L1149.47 258.866L1148.43 259.646L1149.32 260.799L1150.69 259.764L1152.34 260.02L1153.14 261.922L1152.16 263.193L1150.43 263.393L1150.64 264.819L1151.94 264.668L1152.13 265.969L1153.56 265.804L1153.32 264.085L1154.29 262.814L1156.37 263.112L1157.04 264.639L1156.39 266.226L1157.7 266.777L1158.19 265.572L1159.42 266.097L1159.96 264.784ZM1154.89 257.845L1156.96 258.144L1157.79 260.074L1156.54 261.694L1154.46 261.395L1153.64 259.465L1154.89 257.845Z" fill="#717078"/>
<path d="M1079.96 368.784L1078.34 368.094L1077.67 366.567L1078.92 364.947L1080.57 365.203L1081.65 366.59L1082.79 365.737L1081.96 364.683L1083 363.893L1082.1 362.74L1080.74 363.774L1079.09 363.519L1078.29 361.617L1079.27 360.346L1081 360.146L1080.79 358.72L1079.48 358.871L1079.29 357.57L1077.86 357.73L1078.11 359.454L1077.13 360.725L1075.06 360.421L1074.39 358.894L1075.07 357.325L1073.73 356.762L1073.23 357.967L1072.01 357.442L1071.47 358.759L1073.09 359.449L1073.76 360.976L1072.51 362.602L1070.86 362.346L1069.78 360.959L1068.64 361.812L1069.47 362.866L1068.43 363.646L1069.32 364.799L1070.69 363.764L1072.34 364.02L1073.14 365.922L1072.16 367.193L1070.43 367.393L1070.64 368.819L1071.94 368.668L1072.13 369.969L1073.56 369.804L1073.32 368.085L1074.29 366.814L1076.37 367.112L1077.04 368.639L1076.39 370.226L1077.7 370.777L1078.19 369.572L1079.42 370.097L1079.96 368.784ZM1074.89 361.845L1076.96 362.144L1077.79 364.074L1076.54 365.694L1074.46 365.395L1073.64 363.465L1074.89 361.845Z" fill="#717078"/>
<path d="M966.962 264.784L965.344 264.094L964.674 262.567L965.921 260.947L967.568 261.203L968.65 262.59L969.786 261.737L968.964 260.683L969.996 259.893L969.104 258.74L967.736 259.774L966.089 259.519L965.293 257.617L966.271 256.346L968.001 256.146L967.789 254.72L966.483 254.871L966.294 253.57L964.861 253.73L965.112 255.454L964.134 256.725L962.063 256.421L961.393 254.894L962.065 253.325L960.728 252.762L960.235 253.967L959.006 253.442L958.472 254.759L960.09 255.449L960.759 256.976L959.509 258.602L957.861 258.346L956.78 256.959L955.643 257.812L956.465 258.866L955.431 259.646L956.324 260.799L957.692 259.764L959.339 260.02L960.135 261.922L959.157 263.193L957.427 263.393L957.639 264.819L958.945 264.668L959.134 265.969L960.561 265.804L960.316 264.085L961.294 262.814L963.369 263.112L964.039 264.639L963.39 266.226L964.7 266.777L965.193 265.572L966.422 266.097L966.962 264.784ZM961.889 257.845L963.965 258.144L964.785 260.074L963.539 261.694L961.463 261.395L960.643 259.465L961.889 257.845Z" fill="#717078"/>
<path d="M847.962 362.784L846.344 362.094L845.674 360.567L846.921 358.947L848.568 359.203L849.65 360.59L850.786 359.737L849.964 358.683L850.996 357.893L850.104 356.74L848.736 357.774L847.089 357.519L846.293 355.617L847.271 354.346L849.001 354.146L848.789 352.72L847.483 352.871L847.294 351.57L845.861 351.73L846.112 353.454L845.134 354.725L843.063 354.421L842.393 352.894L843.065 351.325L841.728 350.762L841.235 351.967L840.006 351.442L839.472 352.759L841.09 353.449L841.759 354.976L840.509 356.602L838.861 356.346L837.78 354.959L836.643 355.812L837.465 356.866L836.431 357.646L837.324 358.799L838.692 357.764L840.339 358.02L841.135 359.922L840.157 361.193L838.427 361.393L838.639 362.819L839.945 362.668L840.134 363.969L841.561 363.804L841.316 362.085L842.294 360.814L844.369 361.112L845.039 362.639L844.39 364.226L845.7 364.777L846.193 363.572L847.422 364.097L847.962 362.784ZM842.889 355.845L844.965 356.144L845.785 358.074L844.539 359.694L842.463 359.395L841.643 357.465L842.889 355.845Z" fill="#717078"/>
</g>
<ellipse cx="115.015" cy="449.032" rx="492.5" ry="152.479" transform="rotate(-8.06069 115.015 449.032)" fill="url(#paint0_linear_2658_8231)"/>
<ellipse cx="752.707" cy="430.235" rx="553.107" ry="246.128" transform="rotate(-7.95651 752.707 430.235)" fill="url(#paint1_linear_2658_8231)"/>
<g filter="url(#filter0_f_2658_8231)">
<ellipse cx="1039.5" cy="355.5" rx="94.5" ry="48.5" fill="#21211F" fill-opacity="0.2"/>
</g>
<g filter="url(#filter1_f_2658_8231)">
<path d="M850 419.373L860.316 376H963.479L973.795 419.373H850Z" fill="#21211F" fill-opacity="0.2"/>
</g>
<g filter="url(#filter2_f_2658_8231)">
<ellipse cx="1027.5" cy="342.5" rx="94.5" ry="48.5" fill="#504F4B" fill-opacity="0.1"/>
</g>
<path d="M1064.74 332.18C1064.74 351.595 1049 358.546 1029.59 358.546C1010.17 358.546 994.434 351.595 994.434 332.18L1003.22 253.08C1003.22 233.674 1010.17 235.502 1029.59 235.502C1049 235.502 1055.96 233.674 1055.96 253.08L1064.74 332.18Z" fill="#75625E"/>
<path d="M1147.4 282.063C1086.21 229.641 1061.43 154.585 1029.59 154.585C997.748 154.585 972.966 229.65 911.775 282.063C886.059 304.093 898.309 316.839 933.562 314.282C964.984 312.017 994.375 304.891 1029.59 304.891C1064.8 304.891 1094.2 312.017 1125.61 314.282C1160.87 316.839 1173.11 304.084 1147.4 282.063Z" fill="#2E4A1E"/>
<path d="M1127.53 261.287C1080.5 218.169 1054.08 156.413 1029.59 156.413C1005.12 156.413 978.683 218.169 931.656 261.287C894.284 295.548 980.627 303.238 1029.59 261.287C1078.53 303.248 1164.89 295.548 1127.53 261.287Z" fill="#446E2E"/>
<path d="M1127.53 226.355C1080.5 186.075 1054.08 128.384 1029.59 128.384C1005.12 128.384 978.683 186.075 931.656 226.355C894.284 258.36 980.627 265.545 1029.59 226.355C1078.53 265.555 1164.89 258.36 1127.53 226.355Z" fill="#2E4A1E"/>
<path d="M1106.04 197.752C1069.34 166.301 1048.71 121.258 1029.59 121.258C1010.48 121.258 989.844 166.291 953.133 197.752C923.966 222.738 991.36 228.348 1029.59 197.752C1067.8 228.338 1135.22 222.738 1106.04 197.752Z" fill="#446E2E"/>
<path d="M1106.04 171.578C1069.34 140.127 1048.71 95.0938 1029.59 95.0938C1010.48 95.0938 989.844 140.127 953.133 171.578C923.966 196.574 991.36 202.174 1029.59 171.578C1067.8 202.174 1135.22 196.574 1106.04 171.578Z" fill="#2E4A1E"/>
<path d="M1091.29 148.333C1061.66 122.958 1045.01 86.6064 1029.58 86.6064C1014.16 86.6064 997.506 122.958 967.872 148.333C944.325 168.506 998.731 173.027 1029.58 148.333C1060.44 173.027 1114.84 168.506 1091.29 148.333Z" fill="#446E2E"/>
<path d="M1091.29 128.636C1061.66 103.261 1045.01 66.9092 1029.58 66.9092C1014.16 66.9092 997.506 103.261 967.872 128.636C944.325 148.809 998.731 153.33 1029.58 128.636C1060.44 153.33 1114.84 148.809 1091.29 128.636Z" fill="#2E4A1E"/>
<path d="M1076.54 99.6351C1054 80.3267 1041.33 52.667 1029.59 52.667C1017.85 52.667 1005.17 80.3267 982.629 99.6351C964.711 114.986 1006.11 118.428 1029.59 99.6351C1053.06 118.428 1094.46 114.986 1076.54 99.6351Z" fill="#446E2E"/>
<path d="M1076.54 89.1438C1054 69.8257 1041.33 42.166 1029.59 42.166C1017.85 42.166 1005.17 69.8257 982.629 89.1438C964.711 104.495 1006.11 107.937 1029.59 89.1438C1053.06 107.927 1094.46 104.485 1076.54 89.1438Z" fill="#2E4A1E"/>
<path d="M1010.42 144.658C1018.47 144.658 1025 138.129 1025 130.075C1025 122.02 1018.47 115.491 1010.42 115.491C1002.36 115.491 995.834 122.02 995.834 130.075C995.834 138.129 1002.36 144.658 1010.42 144.658Z" fill="#9F6E28"/>
<path d="M1044.44 275.5C1055.18 275.5 1063.89 266.795 1063.89 256.056C1063.89 245.317 1055.18 236.611 1044.44 236.611C1033.71 236.611 1025 245.317 1025 256.056C1025 266.795 1033.71 275.5 1044.44 275.5Z" fill="#9F6E28"/>
<path d="M1068.75 188C1082.17 188 1093.06 177.118 1093.06 163.694C1093.06 150.271 1082.17 139.389 1068.75 139.389C1055.33 139.389 1044.45 150.271 1044.45 163.694C1044.45 177.118 1055.33 188 1068.75 188Z" fill="#923735"/>
<path d="M947.222 285.223C957.961 285.223 966.666 276.517 966.666 265.778C966.666 255.04 957.961 246.334 947.222 246.334C936.483 246.334 927.777 255.04 927.777 265.778C927.777 276.517 936.483 285.223 947.222 285.223Z" fill="#923735"/>
<path d="M986.112 217.166C996.851 217.166 1005.56 208.461 1005.56 197.722C1005.56 186.983 996.851 178.277 986.112 178.277C975.374 178.277 966.668 186.983 966.668 197.722C966.668 208.461 975.374 217.166 986.112 217.166Z" fill="#1D4E83"/>
<path d="M1102.78 256.055C1113.52 256.055 1122.22 247.349 1122.22 236.61C1122.22 225.872 1113.52 217.166 1102.78 217.166C1092.04 217.166 1083.33 225.872 1083.33 236.61C1083.33 247.349 1092.04 256.055 1102.78 256.055Z" fill="#1D4E83"/>
<path d="M1038.41 29.323C1039.8 31.9966 1043.38 34.6605 1046.35 35.2438L1059.76 37.8591C1062.72 38.4425 1063.42 40.6786 1061.3 42.8369L1051.75 52.598C1049.64 54.7563 1048.2 58.9855 1048.58 61.98L1050.23 75.5327C1050.6 78.5369 1048.68 79.8883 1045.97 78.5466L1033.75 72.4702C1031.04 71.1286 1026.57 71.0702 1023.83 72.3439L1011.45 78.1189C1008.71 79.3827 1006.82 77.9827 1007.27 74.9883L1009.26 61.4744C1009.7 58.4897 1008.37 54.2313 1006.32 52.0147L997 42.03C994.939 39.823 995.687 37.5869 998.672 37.0911L1012.14 34.8161C1015.12 34.3202 1018.76 31.7438 1020.23 29.0994L1026.85 17.1508C1028.32 14.5063 1030.68 14.5355 1032.07 17.2091L1038.41 29.323Z" fill="#9F6E28"/>
<g filter="url(#filter3_f_2658_8231)">
<path d="M849 410L859.316 366.627H962.479L972.795 410H849Z" fill="#504F4B" fill-opacity="0.1"/>
</g>
<g filter="url(#filter4_d_2658_8231)">
<path d="M857.314 268.738L866.052 260H953.431L962.169 268.738H857.314Z" fill="#2462A5"/>
<path d="M962.169 399.806H949.062L944.693 386.699H874.79L870.421 399.806H857.314V268.738H962.169V399.806Z" fill="#1D4E83"/>
<rect opacity="0.2" x="857.314" y="268.738" width="104.854" height="2.18446" fill="white"/>
<rect x="857.314" y="286.214" width="104.854" height="96.1163" fill="#1D4E83"/>
<rect x="857.314" y="286.214" width="104.854" height="2.18446" fill="#2462A5"/>
<path d="M874.789 386.698H859.498V397.621H871.149L874.789 386.698Z" fill="#2462A5"/>
<path d="M944.691 386.698H959.983V397.621H948.332L944.691 386.698Z" fill="#2462A5"/>
<rect opacity="0.2" x="866.053" y="321.164" width="26.2135" height="4.36892" fill="white"/>
<rect opacity="0.2" x="866.053" y="343.01" width="26.2135" height="4.36892" fill="white"/>
<rect opacity="0.2" x="909.742" y="321.164" width="43.6892" height="26.2135" fill="white"/>
<rect x="957.799" y="288.398" width="2.18446" height="98.3008" fill="#2462A5"/>
<rect x="859.498" y="288.398" width="2.18446" height="98.3008" fill="#2462A5"/>
<rect x="859.498" y="303.688" width="100.485" height="8.73785" fill="#DA8929"/>
<path d="M918.48 312.426H861.684V303.688H927.217L918.48 312.426Z" fill="#9F6E28"/>
<path d="M887.898 386.698H879.16V391.067C879.16 393.48 881.116 395.436 883.529 395.436C885.942 395.436 887.898 393.48 887.898 391.067V386.698Z" fill="#8E8E8E"/>
<path d="M901.003 386.698H892.266V391.067C892.266 393.48 894.222 395.436 896.635 395.436C899.047 395.436 901.003 393.48 901.003 391.067V386.698Z" fill="#8E8E8E"/>
<path d="M918.48 386.698H905.373V388.883C905.373 392.502 908.307 395.436 911.926 395.436C915.546 395.436 918.48 392.502 918.48 388.883V386.698Z" fill="#8E8E8E"/>
<rect x="879.16" y="386.698" width="8.73785" height="2.18446" fill="#686868"/>
<rect x="892.266" y="386.698" width="8.73785" height="2.18446" fill="#686868"/>
<rect x="905.373" y="386.698" width="13.1068" height="2.18446" fill="#686868"/>
</g>
<path d="M965.646 273.019C965.567 273.179 965.479 273.332 965.373 273.471H965.364C965.364 273.471 965.356 273.471 965.356 273.485C965.223 273.672 965.065 273.839 964.889 273.991C964.572 274.422 964.149 275.186 963.708 276.491C962.863 279.053 961.55 276.609 961.453 276.429C961.18 275.936 961.295 275.637 960.563 275.741C960.563 275.741 960.423 279.137 959.973 281.199C959.683 282.539 958.573 282.088 958.026 280.657C958.026 280.657 956.952 276.012 956.45 276.012C956.45 276.012 956.062 275.797 955.569 277.762C955.084 279.699 954.071 278.588 953.631 277.762L953.234 277.095C952.274 275.47 950.53 274.234 948.407 273.596C948.398 273.596 948.389 273.596 948.372 273.589C948.372 273.589 948.284 273.561 948.134 273.512C947.966 273.464 947.808 273.415 947.649 273.36C947.641 273.36 947.632 273.36 947.623 273.353C947.174 273.221 947.262 273.262 945.614 272.818C943.553 272.776 939.712 272.797 937.968 272.992C934.057 273.596 927.036 274.783 921.46 275.554C919.769 275.79 918.465 275.956 917.857 276.012C917.813 276.019 917.778 276.019 917.743 276.019C917.654 276.026 917.584 276.026 917.54 276.026C909.77 276.012 906 272.568 906 268.957C906 265.346 911.832 257 927.265 257C931.749 257 936.497 258.215 939.712 259.937C941.448 260.868 943.553 261.25 945.614 260.923C948.627 260.444 952.23 260.632 955.63 261.652C962.686 263.777 967.355 269.492 965.646 273.019Z" fill="url(#paint2_linear_2658_8231)"/>
</g>
<defs>
<filter id="filter0_f_2658_8231" x="941" y="303" width="197" height="105" filterUnits="userSpaceOnUse" color-interpolation-filters="sRGB">
<feFlood flood-opacity="0" result="BackgroundImageFix"/>
<feBlend mode="normal" in="SourceGraphic" in2="BackgroundImageFix" result="shape"/>
<feGaussianBlur stdDeviation="2" result="effect1_foregroundBlur_2658_8231"/>
</filter>
<filter id="filter1_f_2658_8231" x="846" y="372" width="131.795" height="51.3735" filterUnits="userSpaceOnUse" color-interpolation-filters="sRGB">
<feFlood flood-opacity="0" result="BackgroundImageFix"/>
<feBlend mode="normal" in="SourceGraphic" in2="BackgroundImageFix" result="shape"/>
<feGaussianBlur stdDeviation="2" result="effect1_foregroundBlur_2658_8231"/>
</filter>
<filter id="filter2_f_2658_8231" x="929" y="290" width="197" height="105" filterUnits="userSpaceOnUse" color-interpolation-filters="sRGB">
<feFlood flood-opacity="0" result="BackgroundImageFix"/>
<feBlend mode="normal" in="SourceGraphic" in2="BackgroundImageFix" result="shape"/>
<feGaussianBlur stdDeviation="2" result="effect1_foregroundBlur_2658_8231"/>
</filter>
<filter id="filter3_f_2658_8231" x="845" y="362.627" width="131.795" height="51.3735" filterUnits="userSpaceOnUse" color-interpolation-filters="sRGB">
<feFlood flood-opacity="0" result="BackgroundImageFix"/>
<feBlend mode="normal" in="SourceGraphic" in2="BackgroundImageFix" result="shape"/>
<feGaussianBlur stdDeviation="2" result="effect1_foregroundBlur_2658_8231"/>
</filter>
<filter id="filter4_d_2658_8231" x="856.314" y="256" width="112.854" height="147.806" filterUnits="userSpaceOnUse" color-interpolation-filters="sRGB">
<feFlood flood-opacity="0" result="BackgroundImageFix"/>
<feColorMatrix in="SourceAlpha" type="matrix" values="0 0 0 0 0 0 0 0 0 0 0 0 0 0 0 0 0 0 127 0" result="hardAlpha"/>
<feOffset dx="3"/>
<feGaussianBlur stdDeviation="2"/>
<feComposite in2="hardAlpha" operator="out"/>
<feColorMatrix type="matrix" values="0 0 0 0 0 0 0 0 0 0 0 0 0 0 0 0 0 0 0.25 0"/>
<feBlend mode="normal" in2="BackgroundImageFix" result="effect1_dropShadow_2658_8231"/>
<feBlend mode="normal" in="SourceGraphic" in2="effect1_dropShadow_2658_8231" result="shape"/>
</filter>
<linearGradient id="paint0_linear_2658_8231" x1="115.015" y1="296.553" x2="115.015" y2="601.512" gradientUnits="userSpaceOnUse">
<stop stop-color="#717078"/>
<stop offset="0.78125" stop-color="#43434A"/>
</linearGradient>
<linearGradient id="paint1_linear_2658_8231" x1="752.707" y1="184.107" x2="752.707" y2="676.363" gradientUnits="userSpaceOnUse">
<stop offset="0.125" stop-color="#717078"/>
<stop offset="0.776042" stop-color="#43434A"/>
</linearGradient>
<linearGradient id="paint2_linear_2658_8231" x1="936" y1="257" x2="936" y2="282" gradientUnits="userSpaceOnUse">
<stop offset="0.295764" stop-color="#717178"/>
<stop offset="1" stop-color="#4A4951"/>
</linearGradient>
<clipPath id="clip0_2658_8231">
<rect width="1186" height="475" fill="white"/>
</clipPath>
<clipPath id="clip1_2658_8231">
<rect width="1189" height="475" fill="white" transform="translate(-2)"/>
</clipPath>
</defs>
</svg>
